{"title":"Ek Stree (2000) Hindi 18+ Hot Movie DVDRip-=MTR=-@Mastitorrents","uid":6656455,"size":731016636,"categoryP":"video","categoryS":"movies","magnet":"?xt=urn:btih:a4b1289ead515b087c82092ff68ff4dad0d22dfc&amp;dn=Ek+Stree+%282000%29+Hindi+18%2B+Hot+Movie+DVDRip-%3DMTR%3D-%40Mastitorrents&amp;tr=udp%3A%2F%2Ftracker.openbittorrent.com%3A80&amp;tr=udp%3A%2F%2Fopen.demonii.com%3A1337&amp;tr=udp%3A%2F%2Ftracker.coppersurfer.tk%3A6969&amp;tr=udp%3A%2F%2Fexodus.desync.com%3A6969","seeders":0,"leechers":1,"uploader":"HDvideos","files":-1,"time":1315337256,"description":"mastitorrents.com\n &lt;a href=&quot;\nhttp://mastitorrents.com/forums/index.php&quot; rel=&quot;nofollow&quot; target=&quot;_NEW&quot;&gt;\nhttp://mastitorrents.com/forums/index.php&lt;/a&gt;\n\nEk Stree (2000) Hindi 18+ Hot Movie DVDRip-=MTR=-@Mastitorrents\n &lt;a href=&quot;\nhttp://thepiratebay.se/user/HDvideos/0/7&quot; rel=&quot;nofollow&quot; target=&quot;_NEW&quot;&gt;\nhttp://thepiratebay.se/user/HDvideos/0/7&lt;/a&gt;\n\nFormat : AVI\nFormat/Info : Audio Video Interleave\nFile size : 697 MiB\nDuration : 1h 44mn\nOverall bit rate : 935 Kbps\n\nVideo\nID : 0\nFormat : MPEG-4 Visual\nFormat profile : Advanced Simple@L5\nFormat settings, BVOP : 2\nFormat settings, QPel : Yes\nFormat settings, GMC : No warppoints\nFormat settings, Matrix : Default (H.263)\nCodec ID : XVID\nCodec ID/Hint : XviD\nDuration : 1h 44mn\nBit rate : 830 Kbps\nWidth : 624 pixels\nHeight : 320 pixels\nDisplay aspect ratio : 1.950\nFrame rate : 23.976 fps\nColor space : YUV\nChroma subsampling : 4:2:0\nBit depth : 8 bits\nScan type : Progressive\nCompression mode : Lossy\nBits/(Pixel*Frame) : 0.173\nStream size : 619 MiB (89%)\nWriting library : XviD 1.2.1 (UTC 2008-12-04)\n\nAudio\nID : 1\nFormat : MPEG Audio\nFormat version : Version 1\nFormat profile : Layer 3\nMode : Joint stereo\nMode extension : MS Stereo\nCodec ID : 55\nCodec ID/Hint : MP3\nDuration : 1h 44mn\nBit rate mode : Constant\nBit rate : 96.0 Kbps\nChannel(s) : 2 channels\nSampling rate : 32.0 KHz\nCompression mode : Lossy\nStream size : 71.6 MiB (10%)\nAlignment : Aligned on interleaves\nInterleave, duration : 42 ms (1.00 video frame)\nWriting library : LAME3.98r\n\nPLOT:\nA story of simple girl from a middle class family who had dreams of marrying a wealthy husband. Due to family pressure and social binding she is forced to marry a common middle class man whom she does not like mentally and physically. This results to avoiding her husband and dreaming about a life she always wanted.\n\nCredits to Original Ripper\n\nRecommended Player:VLC Player\n\nfacebook. com/MastiTorrents\n\nfacebook. com/MastiTorrentsReleasers","torrent":{"xt":"urn:btih:a4b1289ead515b087c82092ff68ff4dad0d22dfc","amp;dn":"Ek+Stree+%282000%29+Hindi+18%2B+Hot+Movie+DVDRip-%3DMTR%3D-%40Mastitorrents","amp;tr":["udp%3A%2F%2Ftracker.openbittorrent.com%3A80","udp%3A%2F%2Fopen.demonii.com%3A1337","udp%3A%2F%2Ftracker.coppersurfer.tk%3A6969","udp%3A%2F%2Fexodus.desync.com%3A6969"],"infoHash":"a4b1289ead515b087c82092ff68ff4dad0d22dfc","infoHashBuffer":{"type":"Buffer","data":[164,177,40,158,173,81,91,8,124,130,9,47,246,143,244,218,208,210,45,252]},"announce":[],"urlList":[]}}